<?xml version="1.0" encoding="utf-8"?>
<!-- Generator: Adobe Illustrator 18.1.1, SVG Export Plug-In . SVG Version: 6.00 Build 0)  -->
<svg version="1.1" xmlns="http://www.w3.org/2000/svg" xmlns:xlink="http://www.w3.org/1999/xlink" x="0px" y="0px"
	 viewBox="0 0 114.8 186.7" enable-background="new 0 0 114.8 186.7" xml:space="preserve">
<g id="Layer_3">
</g>
<g id="Layer_1">
	<g>
		<g>
			<path d="M54.7,5.3c-0.4,1.5-7,23.6-7,23.6l0,0c-0.3,0-0.5,0.1-0.8,0.2v1l6.9,6v1.6v0.7v2.3v113.1h1.7h1.7V40.7v-2.3v-0.7v-1.6
				l6.9-6v-1c-0.2-0.1-0.5-0.1-0.8-0.2l0,0c0,0-6.6-22.2-7-23.6c-0.3-1.1-0.6-2.2-0.9-2.2C55.3,3.1,55,4.2,54.7,5.3z M57.3,21.3
				c0.8,1.3,3.3,5.7,4.4,7.6c0.1,0.1,0.1,0.2,0.2,0.3c0.1,0.2,0.2,0.4,0.3,0.5l-6.4,5.1h-0.2L49,29.6c0-0.1,0.1-0.2,0.3-0.5
				c0-0.1,0.1-0.2,0.2-0.3c1.1-1.8,3.6-6.3,4.4-7.6C55.2,19,55.9,18.9,57.3,21.3z"/>
			<g>
				<polygon points="44.6,167.7 47.4,167.7 55.6,160 63.8,167.7 66.6,167.7 57.8,156.5 53.4,156.5 				"/>
				<polygon points="53.4,165.3 44.6,176.5 47.4,176.5 55.6,168.7 63.8,176.5 66.6,176.5 57.8,165.3 				"/>
				<polygon points="53.4,174 44.6,185.3 47.4,185.3 55.6,177.5 63.8,185.3 66.6,185.3 57.8,174 				"/>
			</g>
		</g>
		<g>
			<path d="M0,143.3l2.3-14.9h0.7c2.4,6.9,7.2,9.5,12.2,9.5c6,0,10.4-4.6,10.4-13.1c0-4.4-1.1-10.6-4.6-17.3L7.8,81.4
				C4.6,74.9,1,66.8,1,59.7c0-14,9.6-22,20.6-22c7.2,0,12.9,2.8,15.2,4.6l-2.3,13.5h-0.7c-2.4-4.4-6.5-7-11.8-7
				c-4.9,0-8.3,3.1-8.3,9.5c0,4.1,2.4,10.6,4.2,14.2l12.9,25.5c4.1,8.2,7.7,15.8,7.7,25.9c0,14-8.6,24.8-22.2,24.8
				C10.1,148.7,2.9,146.6,0,143.3z"/>
		</g>
		<g>
			<path d="M87.6,126.2c0,7.5,4.4,11.4,11.3,11.4c5.1,0,9.8-3.4,12.4-7h0.7l2.9,12.9c-2.4,2.6-8.6,5.2-16,5.2
				c-14.4,0-23.8-8.2-23.8-23.8V61.5c0-15.7,9.5-23.8,23.8-23.8c7.3,0,13.5,2.6,16,5.2l-2.9,12.9h-0.7c-2.6-3.6-7.3-7-12.4-7
				c-6.9,0-11.3,3.9-11.3,11.4V126.2z"/>
		</g>
	</g>
	<g>
		<g>
			<path fill="#FFFFFF" d="M54.7,252c-0.4,1.5-7,23.6-7,23.6l0,0c-0.3,0-0.5,0.1-0.8,0.2v1l6.9,6v1.6v0.7v2.3v113.1h1.7h1.7V287.5
				v-2.3v-0.7v-1.6l6.9-6v-1c-0.2-0.1-0.5-0.1-0.8-0.2l0,0c0,0-6.6-22.2-7-23.6c-0.3-1.1-0.6-2.2-0.9-2.2
				C55.3,249.8,55,251,54.7,252z M57.3,268.1c0.8,1.3,3.3,5.7,4.4,7.6c0.1,0.1,0.1,0.2,0.2,0.3c0.1,0.2,0.2,0.4,0.3,0.5l-6.4,5.1
				h-0.2l-6.4-5.1c0-0.1,0.1-0.2,0.3-0.5c0-0.1,0.1-0.2,0.2-0.3c1.1-1.8,3.6-6.3,4.4-7.6C55.2,265.7,55.9,265.7,57.3,268.1z"/>
			<g>
				<polygon fill="#FFFFFF" points="44.6,414.5 47.4,414.5 55.6,406.7 63.8,414.5 66.6,414.5 57.8,403.3 53.4,403.3 				"/>
				<polygon fill="#FFFFFF" points="53.4,412 44.6,423.3 47.4,423.3 55.6,415.5 63.8,423.3 66.6,423.3 57.8,412 				"/>
				<polygon fill="#FFFFFF" points="53.4,420.8 44.6,432 47.4,432 55.6,424.3 63.8,432 66.6,432 57.8,420.8 				"/>
			</g>
		</g>
		<g>
			<path fill="#FFFFFF" d="M0,390.1l2.3-14.9h0.7c2.4,6.9,7.2,9.5,12.2,9.5c6,0,10.4-4.6,10.4-13.1c0-4.4-1.1-10.6-4.6-17.3
				L7.8,328.2C4.6,321.7,1,313.5,1,306.5c0-14,9.6-22,20.6-22c7.2,0,12.9,2.8,15.2,4.6l-2.3,13.5h-0.7c-2.4-4.4-6.5-7-11.8-7
				c-4.9,0-8.3,3.1-8.3,9.5c0,4.1,2.4,10.6,4.2,14.2l12.9,25.5c4.1,8.2,7.7,15.8,7.7,25.9c0,14-8.6,24.8-22.2,24.8
				C10.1,395.4,2.9,393.3,0,390.1z"/>
		</g>
		<g>
			<path fill="#FFFFFF" d="M87.6,372.9c0,7.5,4.4,11.4,11.3,11.4c5.1,0,9.8-3.4,12.4-7h0.7l2.9,12.9c-2.4,2.6-8.6,5.2-16,5.2
				c-14.4,0-23.8-8.2-23.8-23.8v-63.3c0-15.7,9.5-23.8,23.8-23.8c7.3,0,13.5,2.6,16,5.2l-2.9,12.9h-0.7c-2.6-3.6-7.3-7-12.4-7
				c-6.9,0-11.3,3.9-11.3,11.4V372.9z"/>
		</g>
	</g>
	<text transform="matrix(1 0 0 1 230.6337 103.3762)"><tspan x="0" y="0" font-family="'HWTUnitGothic-720'" font-size="85.8136" letter-spacing="6">SECO</tspan><tspan x="156.1" y="0" font-family="'HWTUnitGothic-720'" font-size="85.8136" letter-spacing="8">N</tspan><tspan x="198.9" y="0" font-family="'HWTUnitGothic-720'" font-size="85.8136" letter-spacing="13">D</tspan><tspan x="246.5" y="0" font-family="'HWTUnitGothic-719'" font-size="100" letter-spacing="18">|</tspan><tspan x="278.3" y="0" font-family="'HWTUnitGothic-721'" font-size="85.8136" letter-spacing="17">CR</tspan><tspan x="361.3" y="0" font-family="'HWTUnitGothic-721'" font-size="85.8136" letter-spacing="18">O</tspan><tspan x="405.1" y="0" font-family="'HWTUnitGothic-721'" font-size="85.8136" letter-spacing="22">P</tspan></text>
	<text transform="matrix(1 0 0 1 328.1703 159.7664)"><tspan x="0" y="0" font-family="'HWTRepublicGothicSolid'" font-size="34.6225" letter-spacing="9">C</tspan><tspan x="33.9" y="0" font-family="'HWTRepublicGothicSolid'" font-size="34.6225" letter-spacing="11">R</tspan><tspan x="70.2" y="0" font-family="'HWTRepublicGothicSolid'" font-size="34.6225" letter-spacing="11">E</tspan><tspan x="103.8" y="0" font-family="'HWTRepublicGothicSolid'" font-size="34.6225" letter-spacing="4">A</tspan><tspan x="136.5" y="0" font-family="'HWTRepublicGothicSolid'" font-size="34.6225" letter-spacing="9">TIV</tspan><tspan x="221" y="0" font-family="'HWTRepublicGothicSolid'" font-size="34.6225" letter-spacing="9">E</tspan></text>
	<text transform="matrix(1 0 0 1 230.6337 350.1367)"><tspan x="0" y="0" fill="#FFFFFF" font-family="'HWTUnitGothic-720'" font-size="85.8136" letter-spacing="6">SECO</tspan><tspan x="156.1" y="0" fill="#FFFFFF" font-family="'HWTUnitGothic-720'" font-size="85.8136" letter-spacing="8">N</tspan><tspan x="198.9" y="0" fill="#FFFFFF" font-family="'HWTUnitGothic-720'" font-size="85.8136" letter-spacing="13">D</tspan><tspan x="246.5" y="0" fill="#FFFFFF" font-family="'HWTUnitGothic-719'" font-size="100" letter-spacing="18">|</tspan><tspan x="278.3" y="0" fill="#FFFFFF" font-family="'HWTUnitGothic-721'" font-size="85.8136" letter-spacing="17">CR</tspan><tspan x="361.3" y="0" fill="#FFFFFF" font-family="'HWTUnitGothic-721'" font-size="85.8136" letter-spacing="18">O</tspan><tspan x="405.1" y="0" fill="#FFFFFF" font-family="'HWTUnitGothic-721'" font-size="85.8136" letter-spacing="22">P</tspan></text>
	<text transform="matrix(1 0 0 1 328.1703 406.5269)"><tspan x="0" y="0" fill="#FFFFFF" font-family="'HWTRepublicGothicSolid'" font-size="34.6225" letter-spacing="9">C</tspan><tspan x="33.9" y="0" fill="#FFFFFF" font-family="'HWTRepublicGothicSolid'" font-size="34.6225" letter-spacing="11">R</tspan><tspan x="70.2" y="0" fill="#FFFFFF" font-family="'HWTRepublicGothicSolid'" font-size="34.6225" letter-spacing="11">E</tspan><tspan x="103.8" y="0" fill="#FFFFFF" font-family="'HWTRepublicGothicSolid'" font-size="34.6225" letter-spacing="4">A</tspan><tspan x="136.5" y="0" fill="#FFFFFF" font-family="'HWTRepublicGothicSolid'" font-size="34.6225" letter-spacing="9">TIV</tspan><tspan x="221" y="0" fill="#FFFFFF" font-family="'HWTRepublicGothicSolid'" font-size="34.6225" letter-spacing="9">E</tspan></text>
	<text transform="matrix(1 0 0 1 748.901 122.2395)"><tspan x="0" y="0" font-family="'HWTUnitGothic-720'" font-size="85.8136" letter-spacing="6">SECO</tspan><tspan x="156.1" y="0" font-family="'HWTUnitGothic-720'" font-size="85.8136" letter-spacing="8">N</tspan><tspan x="198.9" y="0" font-family="'HWTUnitGothic-720'" font-size="85.8136" letter-spacing="13">D</tspan><tspan x="246.5" y="0" font-family="'HWTUnitGothic-719'" font-size="100" letter-spacing="18">|</tspan><tspan x="278.3" y="0" font-family="'HWTUnitGothic-721'" font-size="85.8136" letter-spacing="17">CR</tspan><tspan x="361.3" y="0" font-family="'HWTUnitGothic-721'" font-size="85.8136" letter-spacing="18">O</tspan><tspan x="405.1" y="0" font-family="'HWTUnitGothic-721'" font-size="85.8136" letter-spacing="22">P</tspan></text>
	<text transform="matrix(1 0 0 1 748.901 369)"><tspan x="0" y="0" fill="#FFFFFF" font-family="'HWTUnitGothic-720'" font-size="85.8136" letter-spacing="6">SECO</tspan><tspan x="156.1" y="0" fill="#FFFFFF" font-family="'HWTUnitGothic-720'" font-size="85.8136" letter-spacing="8">N</tspan><tspan x="198.9" y="0" fill="#FFFFFF" font-family="'HWTUnitGothic-720'" font-size="85.8136" letter-spacing="13">D</tspan><tspan x="246.5" y="0" fill="#FFFFFF" font-family="'HWTUnitGothic-719'" font-size="100" letter-spacing="18">|</tspan><tspan x="278.3" y="0" fill="#FFFFFF" font-family="'HWTUnitGothic-721'" font-size="85.8136" letter-spacing="17">CR</tspan><tspan x="361.3" y="0" fill="#FFFFFF" font-family="'HWTUnitGothic-721'" font-size="85.8136" letter-spacing="18">O</tspan><tspan x="405.1" y="0" fill="#FFFFFF" font-family="'HWTUnitGothic-721'" font-size="85.8136" letter-spacing="22">P</tspan></text>
</g>
<g id="Layer_2">
</g>
</svg>
