<?xml version="1.0" encoding="utf-8"?>
<!-- Generator: Adobe Illustrator 18.1.1, SVG Export Plug-In . SVG Version: 6.00 Build 0)  -->
<svg version="1.1" xmlns="http://www.w3.org/2000/svg" xmlns:xlink="http://www.w3.org/1999/xlink" x="0px" y="0px"
	 viewBox="0 0 429.6 138.7" enable-background="new 0 0 429.6 138.7" xml:space="preserve">
<g id="Layer_3">
</g>
<g id="Layer_1">
	<g>
		<g>
			<path d="M-176-265.5c-0.4,1.5-7,23.6-7,23.6l0,0c-0.3,0-0.5,0.1-0.8,0.2v1l6.9,6v1.6v0.7v2.3v113.1h1.7h1.7V-230v-2.3v-0.7v-1.6
				l6.9-6v-1c-0.2-0.1-0.5-0.1-0.8-0.2l0,0c0,0-6.6-22.2-7-23.6c-0.3-1.1-0.6-2.2-0.9-2.2C-175.3-267.7-175.7-266.6-176-265.5z
				 M-173.3-249.4c0.8,1.3,3.3,5.7,4.4,7.6c0.1,0.1,0.1,0.2,0.2,0.3c0.1,0.2,0.2,0.4,0.3,0.5l-6.4,5.1h-0.2l-6.4-5.1
				c0-0.1,0.1-0.2,0.3-0.5c0-0.1,0.1-0.2,0.2-0.3c1.1-1.8,3.6-6.3,4.4-7.6C-175.5-251.8-174.8-251.9-173.3-249.4z"/>
			<g>
				<polygon points="-186,-103 -183.2,-103 -175,-110.8 -166.9,-103 -164,-103 -172.8,-114.2 -177.2,-114.2 				"/>
				<polygon points="-177.2,-105.5 -186,-94.3 -183.2,-94.3 -175,-102 -166.9,-94.3 -164,-94.3 -172.8,-105.5 				"/>
				<polygon points="-177.2,-96.7 -186,-85.5 -183.2,-85.5 -175,-93.3 -166.9,-85.5 -164,-85.5 -172.8,-96.7 				"/>
			</g>
		</g>
		<g>
			<path d="M-230.6-127.5l2.3-14.9h0.7c2.4,6.9,7.2,9.5,12.2,9.5c6,0,10.4-4.6,10.4-13.1c0-4.4-1.1-10.6-4.6-17.3l-13.2-26.1
				c-3.3-6.5-6.9-14.7-6.9-21.7c0-14,9.6-22,20.6-22c7.2,0,12.9,2.8,15.2,4.6l-2.3,13.5h-0.7c-2.4-4.4-6.5-7-11.8-7
				c-4.9,0-8.3,3.1-8.3,9.5c0,4.1,2.4,10.6,4.2,14.2l12.9,25.5c4.1,8.2,7.7,15.8,7.7,25.9c0,14-8.6,24.8-22.2,24.8
				C-220.5-122.1-227.7-124.2-230.6-127.5z"/>
		</g>
		<g>
			<path d="M-143.1-144.6c0,7.5,4.4,11.4,11.3,11.4c5.1,0,9.8-3.4,12.4-7h0.7l2.9,12.9c-2.4,2.6-8.6,5.2-16,5.2
				c-14.4,0-23.8-8.2-23.8-23.8v-63.3c0-15.7,9.5-23.8,23.8-23.8c7.3,0,13.5,2.6,16,5.2l-2.9,12.9h-0.7c-2.6-3.6-7.3-7-12.4-7
				c-6.9,0-11.3,3.9-11.3,11.4V-144.6z"/>
		</g>
	</g>
	<g>
		<g>
			<path fill="#FFFFFF" d="M-176-18.7c-0.4,1.5-7,23.6-7,23.6l0,0c-0.3,0-0.5,0.1-0.8,0.2v1l6.9,6v1.6v0.7v2.3v113.1h1.7h1.7V16.7
				v-2.3v-0.7v-1.6l6.9-6v-1c-0.2-0.1-0.5-0.1-0.8-0.2l0,0c0,0-6.6-22.2-7-23.6c-0.3-1.1-0.6-2.2-0.9-2.2
				C-175.3-20.9-175.7-19.8-176-18.7z M-173.3-2.7c0.8,1.3,3.3,5.7,4.4,7.6c0.1,0.1,0.1,0.2,0.2,0.3c0.1,0.2,0.2,0.4,0.3,0.5
				l-6.4,5.1h-0.2l-6.4-5.1c0-0.1,0.1-0.2,0.3-0.5c0-0.1,0.1-0.2,0.2-0.3c1.1-1.8,3.6-6.3,4.4-7.6C-175.5-5-174.8-5.1-173.3-2.7z"/>
			<g>
				<polygon fill="#FFFFFF" points="-186,143.7 -183.2,143.7 -175,136 -166.9,143.7 -164,143.7 -172.8,132.5 -177.2,132.5 				"/>
				<polygon fill="#FFFFFF" points="-177.2,141.3 -186,152.5 -183.2,152.5 -175,144.7 -166.9,152.5 -164,152.5 -172.8,141.3 				"/>
				<polygon fill="#FFFFFF" points="-177.2,150 -186,161.3 -183.2,161.3 -175,153.5 -166.9,161.3 -164,161.3 -172.8,150 				"/>
			</g>
		</g>
		<g>
			<path fill="#FFFFFF" d="M-230.6,119.3l2.3-14.9h0.7c2.4,6.9,7.2,9.5,12.2,9.5c6,0,10.4-4.6,10.4-13.1c0-4.4-1.1-10.6-4.6-17.3
				l-13.2-26.1c-3.3-6.5-6.9-14.7-6.9-21.7c0-14,9.6-22,20.6-22c7.2,0,12.9,2.8,15.2,4.6l-2.3,13.5h-0.7c-2.4-4.4-6.5-7-11.8-7
				c-4.9,0-8.3,3.1-8.3,9.5c0,4.1,2.4,10.6,4.2,14.2l12.9,25.5c4.1,8.2,7.7,15.8,7.7,25.9c0,14-8.6,24.8-22.2,24.8
				C-220.5,124.7-227.7,122.6-230.6,119.3z"/>
		</g>
		<g>
			<path fill="#FFFFFF" d="M-143.1,102.2c0,7.5,4.4,11.4,11.3,11.4c5.1,0,9.8-3.4,12.4-7h0.7l2.9,12.9c-2.4,2.6-8.6,5.2-16,5.2
				c-14.4,0-23.8-8.2-23.8-23.8V37.5c0-15.7,9.5-23.8,23.8-23.8c7.3,0,13.5,2.6,16,5.2l-2.9,12.9h-0.7c-2.6-3.6-7.3-7-12.4-7
				c-6.9,0-11.3,3.9-11.3,11.4V102.2z"/>
		</g>
	</g>
	<text transform="matrix(1 0 0 1 0 -167.3844)"><tspan x="0" y="0" font-family="'HWTUnitGothic-720'" font-size="85.8136" letter-spacing="6">SECO</tspan><tspan x="156.1" y="0" font-family="'HWTUnitGothic-720'" font-size="85.8136" letter-spacing="8">N</tspan><tspan x="198.9" y="0" font-family="'HWTUnitGothic-720'" font-size="85.8136" letter-spacing="13">D</tspan><tspan x="246.5" y="0" font-family="'HWTUnitGothic-719'" font-size="100" letter-spacing="18">|</tspan><tspan x="278.3" y="0" font-family="'HWTUnitGothic-721'" font-size="85.8136" letter-spacing="17">CR</tspan><tspan x="361.3" y="0" font-family="'HWTUnitGothic-721'" font-size="85.8136" letter-spacing="18">O</tspan><tspan x="405.1" y="0" font-family="'HWTUnitGothic-721'" font-size="85.8136" letter-spacing="22">P</tspan></text>
	<text transform="matrix(1 0 0 1 97.5366 -110.9942)"><tspan x="0" y="0" font-family="'HWTRepublicGothicSolid'" font-size="34.6225" letter-spacing="9">C</tspan><tspan x="33.9" y="0" font-family="'HWTRepublicGothicSolid'" font-size="34.6225" letter-spacing="11">R</tspan><tspan x="70.2" y="0" font-family="'HWTRepublicGothicSolid'" font-size="34.6225" letter-spacing="11">E</tspan><tspan x="103.8" y="0" font-family="'HWTRepublicGothicSolid'" font-size="34.6225" letter-spacing="4">A</tspan><tspan x="136.5" y="0" font-family="'HWTRepublicGothicSolid'" font-size="34.6225" letter-spacing="9">TIV</tspan><tspan x="221" y="0" font-family="'HWTRepublicGothicSolid'" font-size="34.6225" letter-spacing="9">E</tspan></text>
	<text transform="matrix(1 0 0 1 0 79.3762)"><tspan x="0" y="0" fill="#FFFFFF" font-family="'HWTUnitGothic-720'" font-size="85.8136" letter-spacing="6">SECO</tspan><tspan x="156.1" y="0" fill="#FFFFFF" font-family="'HWTUnitGothic-720'" font-size="85.8136" letter-spacing="8">N</tspan><tspan x="198.9" y="0" fill="#FFFFFF" font-family="'HWTUnitGothic-720'" font-size="85.8136" letter-spacing="13">D</tspan><tspan x="246.5" y="0" fill="#FFFFFF" font-family="'HWTUnitGothic-719'" font-size="100" letter-spacing="18">|</tspan><tspan x="278.3" y="0" fill="#FFFFFF" font-family="'HWTUnitGothic-721'" font-size="85.8136" letter-spacing="17">CR</tspan><tspan x="361.3" y="0" fill="#FFFFFF" font-family="'HWTUnitGothic-721'" font-size="85.8136" letter-spacing="18">O</tspan><tspan x="405.1" y="0" fill="#FFFFFF" font-family="'HWTUnitGothic-721'" font-size="85.8136" letter-spacing="22">P</tspan></text>
	<text transform="matrix(1 0 0 1 97.5366 135.7664)"><tspan x="0" y="0" fill="#FFFFFF" font-family="'HWTRepublicGothicSolid'" font-size="34.6225" letter-spacing="9">C</tspan><tspan x="33.9" y="0" fill="#FFFFFF" font-family="'HWTRepublicGothicSolid'" font-size="34.6225" letter-spacing="11">R</tspan><tspan x="70.2" y="0" fill="#FFFFFF" font-family="'HWTRepublicGothicSolid'" font-size="34.6225" letter-spacing="11">E</tspan><tspan x="103.8" y="0" fill="#FFFFFF" font-family="'HWTRepublicGothicSolid'" font-size="34.6225" letter-spacing="4">A</tspan><tspan x="136.5" y="0" fill="#FFFFFF" font-family="'HWTRepublicGothicSolid'" font-size="34.6225" letter-spacing="9">TIV</tspan><tspan x="221" y="0" fill="#FFFFFF" font-family="'HWTRepublicGothicSolid'" font-size="34.6225" letter-spacing="9">E</tspan></text>
	<text transform="matrix(1 0 0 1 518.2673 -148.5211)"><tspan x="0" y="0" font-family="'HWTUnitGothic-720'" font-size="85.8136" letter-spacing="6">SECO</tspan><tspan x="156.1" y="0" font-family="'HWTUnitGothic-720'" font-size="85.8136" letter-spacing="8">N</tspan><tspan x="198.9" y="0" font-family="'HWTUnitGothic-720'" font-size="85.8136" letter-spacing="13">D</tspan><tspan x="246.5" y="0" font-family="'HWTUnitGothic-719'" font-size="100" letter-spacing="18">|</tspan><tspan x="278.3" y="0" font-family="'HWTUnitGothic-721'" font-size="85.8136" letter-spacing="17">CR</tspan><tspan x="361.3" y="0" font-family="'HWTUnitGothic-721'" font-size="85.8136" letter-spacing="18">O</tspan><tspan x="405.1" y="0" font-family="'HWTUnitGothic-721'" font-size="85.8136" letter-spacing="22">P</tspan></text>
	<text transform="matrix(1 0 0 1 518.2673 98.2395)"><tspan x="0" y="0" fill="#FFFFFF" font-family="'HWTUnitGothic-720'" font-size="85.8136" letter-spacing="6">SECO</tspan><tspan x="156.1" y="0" fill="#FFFFFF" font-family="'HWTUnitGothic-720'" font-size="85.8136" letter-spacing="8">N</tspan><tspan x="198.9" y="0" fill="#FFFFFF" font-family="'HWTUnitGothic-720'" font-size="85.8136" letter-spacing="13">D</tspan><tspan x="246.5" y="0" fill="#FFFFFF" font-family="'HWTUnitGothic-719'" font-size="100" letter-spacing="18">|</tspan><tspan x="278.3" y="0" fill="#FFFFFF" font-family="'HWTUnitGothic-721'" font-size="85.8136" letter-spacing="17">CR</tspan><tspan x="361.3" y="0" fill="#FFFFFF" font-family="'HWTUnitGothic-721'" font-size="85.8136" letter-spacing="18">O</tspan><tspan x="405.1" y="0" fill="#FFFFFF" font-family="'HWTUnitGothic-721'" font-size="85.8136" letter-spacing="22">P</tspan></text>
</g>
<g id="Layer_2">
</g>
</svg>
