<?xml version="1.0" encoding="utf-8"?>
<!-- Generator: Adobe Illustrator 18.1.1, SVG Export Plug-In . SVG Version: 6.00 Build 0)  -->
<svg version="1.1" xmlns="http://www.w3.org/2000/svg" xmlns:xlink="http://www.w3.org/1999/xlink" x="0px" y="0px"
	 viewBox="0 0 428 93.3" enable-background="new 0 0 428 93.3" xml:space="preserve">
<g id="Layer_3">
</g>
<g id="Layer_1">
	<g>
		<g>
			<path d="M-694.2-288.2c-0.4,1.5-7,23.6-7,23.6l0,0c-0.3,0-0.5,0.1-0.8,0.2v1l6.9,6v1.6v0.7v2.3v113.1h1.7h1.7v-113.1v-2.3v-0.7
				v-1.6l6.9-6v-1c-0.2-0.1-0.5-0.1-0.8-0.2l0,0c0,0-6.6-22.2-7-23.6c-0.3-1.1-0.6-2.2-0.9-2.2S-693.9-289.2-694.2-288.2z
				 M-691.6-272.1c0.8,1.3,3.3,5.7,4.4,7.6c0.1,0.1,0.1,0.2,0.2,0.3c0.1,0.2,0.2,0.4,0.3,0.5l-6.4,5.1h-0.2l-6.4-5.1
				c0-0.1,0.1-0.2,0.3-0.5c0-0.1,0.1-0.2,0.2-0.3c1.1-1.8,3.6-6.3,4.4-7.6C-693.7-274.5-693-274.5-691.6-272.1z"/>
			<g>
				<polygon points="-704.3,-125.7 -701.5,-125.7 -693.3,-133.4 -685.1,-125.7 -682.3,-125.7 -691.1,-136.9 -695.5,-136.9 				"/>
				<polygon points="-695.5,-128.1 -704.3,-116.9 -701.5,-116.9 -693.3,-124.7 -685.1,-116.9 -682.3,-116.9 -691.1,-128.1 				"/>
				<polygon points="-695.5,-119.4 -704.3,-108.2 -701.5,-108.2 -693.3,-115.9 -685.1,-108.2 -682.3,-108.2 -691.1,-119.4 				"/>
			</g>
		</g>
		<g>
			<path d="M-748.9-150.1l2.3-14.9h0.7c2.4,6.9,7.2,9.5,12.2,9.5c6,0,10.4-4.6,10.4-13.1c0-4.4-1.1-10.6-4.6-17.3l-13.2-26.1
				c-3.3-6.5-6.9-14.7-6.9-21.7c0-14,9.6-22,20.6-22c7.2,0,12.9,2.8,15.2,4.6l-2.3,13.5h-0.7c-2.4-4.4-6.5-7-11.8-7
				c-4.9,0-8.3,3.1-8.3,9.5c0,4.1,2.4,10.6,4.2,14.2l12.9,25.5c4.1,8.2,7.7,15.8,7.7,25.9c0,14-8.6,24.8-22.2,24.8
				C-738.8-144.7-746-146.9-748.9-150.1z"/>
		</g>
		<g>
			<path d="M-661.3-167.3c0,7.5,4.4,11.4,11.3,11.4c5.1,0,9.8-3.4,12.4-7h0.7l2.9,12.9c-2.4,2.6-8.6,5.2-16,5.2
				c-14.4,0-23.8-8.2-23.8-23.8v-63.3c0-15.7,9.5-23.8,23.8-23.8c7.3,0,13.5,2.6,16,5.2l-2.9,12.9h-0.7c-2.6-3.6-7.3-7-12.4-7
				c-6.9,0-11.3,3.9-11.3,11.4V-167.3z"/>
		</g>
	</g>
	<g>
		<g>
			<path fill="#FFFFFF" d="M-694.2-41.4c-0.4,1.5-7,23.6-7,23.6l0,0c-0.3,0-0.5,0.1-0.8,0.2v1l6.9,6V-9v0.7v2.3v113.1h1.7h1.7V-5.9
				v-2.3V-9v-1.6l6.9-6v-1c-0.2-0.1-0.5-0.1-0.8-0.2l0,0c0,0-6.6-22.2-7-23.6c-0.3-1.1-0.6-2.2-0.9-2.2S-693.9-42.5-694.2-41.4z
				 M-691.6-25.4c0.8,1.3,3.3,5.7,4.4,7.6c0.1,0.1,0.1,0.2,0.2,0.3c0.1,0.2,0.2,0.4,0.3,0.5l-6.4,5.1h-0.2l-6.4-5.1
				c0-0.1,0.1-0.2,0.3-0.5c0-0.1,0.1-0.2,0.2-0.3c1.1-1.8,3.6-6.3,4.4-7.6C-693.7-27.7-693-27.8-691.6-25.4z"/>
			<g>
				<polygon fill="#FFFFFF" points="-704.3,121.1 -701.5,121.1 -693.3,113.3 -685.1,121.1 -682.3,121.1 -691.1,109.9 -695.5,109.9 
									"/>
				<polygon fill="#FFFFFF" points="-695.5,118.6 -704.3,129.8 -701.5,129.8 -693.3,122.1 -685.1,129.8 -682.3,129.8 -691.1,118.6 
									"/>
				<polygon fill="#FFFFFF" points="-695.5,127.4 -704.3,138.6 -701.5,138.6 -693.3,130.8 -685.1,138.6 -682.3,138.6 -691.1,127.4 
									"/>
			</g>
		</g>
		<g>
			<path fill="#FFFFFF" d="M-748.9,96.6l2.3-14.9h0.7c2.4,6.9,7.2,9.5,12.2,9.5c6,0,10.4-4.6,10.4-13.1c0-4.4-1.1-10.6-4.6-17.3
				l-13.2-26.1c-3.3-6.5-6.9-14.7-6.9-21.7c0-14,9.6-22,20.6-22c7.2,0,12.9,2.8,15.2,4.6l-2.3,13.5h-0.7c-2.4-4.4-6.5-7-11.8-7
				c-4.9,0-8.3,3.1-8.3,9.5c0,4.1,2.4,10.6,4.2,14.2l12.9,25.5c4.1,8.2,7.7,15.8,7.7,25.9c0,14-8.6,24.8-22.2,24.8
				C-738.8,102-746,99.9-748.9,96.6z"/>
		</g>
		<g>
			<path fill="#FFFFFF" d="M-661.3,79.5c0,7.5,4.4,11.4,11.3,11.4c5.1,0,9.8-3.4,12.4-7h0.7l2.9,12.9c-2.4,2.6-8.6,5.2-16,5.2
				c-14.4,0-23.8-8.2-23.8-23.8V14.9c0-15.7,9.5-23.8,23.8-23.8c7.3,0,13.5,2.6,16,5.2L-637,9.2h-0.7c-2.6-3.6-7.3-7-12.4-7
				c-6.9,0-11.3,3.9-11.3,11.4V79.5z"/>
		</g>
	</g>
	<text transform="matrix(1 0 0 1 -518.2675 -190.051)"><tspan x="0" y="0" font-family="'HWTUnitGothic-720'" font-size="85.8136" letter-spacing="6">SECO</tspan><tspan x="156.1" y="0" font-family="'HWTUnitGothic-720'" font-size="85.8136" letter-spacing="8">N</tspan><tspan x="198.9" y="0" font-family="'HWTUnitGothic-720'" font-size="85.8136" letter-spacing="13">D</tspan><tspan x="246.5" y="0" font-family="'HWTUnitGothic-719'" font-size="100" letter-spacing="18">|</tspan><tspan x="278.3" y="0" font-family="'HWTUnitGothic-721'" font-size="85.8136" letter-spacing="17">CR</tspan><tspan x="361.3" y="0" font-family="'HWTUnitGothic-721'" font-size="85.8136" letter-spacing="18">O</tspan><tspan x="405.1" y="0" font-family="'HWTUnitGothic-721'" font-size="85.8136" letter-spacing="22">P</tspan></text>
	<text transform="matrix(1 0 0 1 -420.7309 -133.6608)"><tspan x="0" y="0" font-family="'HWTRepublicGothicSolid'" font-size="34.6225" letter-spacing="9">C</tspan><tspan x="33.9" y="0" font-family="'HWTRepublicGothicSolid'" font-size="34.6225" letter-spacing="11">R</tspan><tspan x="70.2" y="0" font-family="'HWTRepublicGothicSolid'" font-size="34.6225" letter-spacing="11">E</tspan><tspan x="103.8" y="0" font-family="'HWTRepublicGothicSolid'" font-size="34.6225" letter-spacing="4">A</tspan><tspan x="136.5" y="0" font-family="'HWTRepublicGothicSolid'" font-size="34.6225" letter-spacing="9">TIV</tspan><tspan x="221" y="0" font-family="'HWTRepublicGothicSolid'" font-size="34.6225" letter-spacing="9">E</tspan></text>
	<text transform="matrix(1 0 0 1 -518.2675 56.7095)"><tspan x="0" y="0" fill="#FFFFFF" font-family="'HWTUnitGothic-720'" font-size="85.8136" letter-spacing="6">SECO</tspan><tspan x="156.1" y="0" fill="#FFFFFF" font-family="'HWTUnitGothic-720'" font-size="85.8136" letter-spacing="8">N</tspan><tspan x="198.9" y="0" fill="#FFFFFF" font-family="'HWTUnitGothic-720'" font-size="85.8136" letter-spacing="13">D</tspan><tspan x="246.5" y="0" fill="#FFFFFF" font-family="'HWTUnitGothic-719'" font-size="100" letter-spacing="18">|</tspan><tspan x="278.3" y="0" fill="#FFFFFF" font-family="'HWTUnitGothic-721'" font-size="85.8136" letter-spacing="17">CR</tspan><tspan x="361.3" y="0" fill="#FFFFFF" font-family="'HWTUnitGothic-721'" font-size="85.8136" letter-spacing="18">O</tspan><tspan x="405.1" y="0" fill="#FFFFFF" font-family="'HWTUnitGothic-721'" font-size="85.8136" letter-spacing="22">P</tspan></text>
	<text transform="matrix(1 0 0 1 -420.7309 113.0997)"><tspan x="0" y="0" fill="#FFFFFF" font-family="'HWTRepublicGothicSolid'" font-size="34.6225" letter-spacing="9">C</tspan><tspan x="33.9" y="0" fill="#FFFFFF" font-family="'HWTRepublicGothicSolid'" font-size="34.6225" letter-spacing="11">R</tspan><tspan x="70.2" y="0" fill="#FFFFFF" font-family="'HWTRepublicGothicSolid'" font-size="34.6225" letter-spacing="11">E</tspan><tspan x="103.8" y="0" fill="#FFFFFF" font-family="'HWTRepublicGothicSolid'" font-size="34.6225" letter-spacing="4">A</tspan><tspan x="136.5" y="0" fill="#FFFFFF" font-family="'HWTRepublicGothicSolid'" font-size="34.6225" letter-spacing="9">TIV</tspan><tspan x="221" y="0" fill="#FFFFFF" font-family="'HWTRepublicGothicSolid'" font-size="34.6225" letter-spacing="9">E</tspan></text>
	<text transform="matrix(1 0 0 1 -1.220703e-04 -171.1877)"><tspan x="0" y="0" font-family="'HWTUnitGothic-720'" font-size="85.8136" letter-spacing="6">SECO</tspan><tspan x="156.1" y="0" font-family="'HWTUnitGothic-720'" font-size="85.8136" letter-spacing="8">N</tspan><tspan x="198.9" y="0" font-family="'HWTUnitGothic-720'" font-size="85.8136" letter-spacing="13">D</tspan><tspan x="246.5" y="0" font-family="'HWTUnitGothic-719'" font-size="100" letter-spacing="18">|</tspan><tspan x="278.3" y="0" font-family="'HWTUnitGothic-721'" font-size="85.8136" letter-spacing="17">CR</tspan><tspan x="361.3" y="0" font-family="'HWTUnitGothic-721'" font-size="85.8136" letter-spacing="18">O</tspan><tspan x="405.1" y="0" font-family="'HWTUnitGothic-721'" font-size="85.8136" letter-spacing="22">P</tspan></text>
	<text transform="matrix(1 0 0 1 -1.220703e-04 75.5728)"><tspan x="0" y="0" fill="#FFFFFF" font-family="'HWTUnitGothic-720'" font-size="85.8136" letter-spacing="6">SECO</tspan><tspan x="156.1" y="0" fill="#FFFFFF" font-family="'HWTUnitGothic-720'" font-size="85.8136" letter-spacing="8">N</tspan><tspan x="198.9" y="0" fill="#FFFFFF" font-family="'HWTUnitGothic-720'" font-size="85.8136" letter-spacing="13">D</tspan><tspan x="246.5" y="0" fill="#FFFFFF" font-family="'HWTUnitGothic-719'" font-size="100" letter-spacing="18">|</tspan><tspan x="278.3" y="0" fill="#FFFFFF" font-family="'HWTUnitGothic-721'" font-size="85.8136" letter-spacing="17">CR</tspan><tspan x="361.3" y="0" fill="#FFFFFF" font-family="'HWTUnitGothic-721'" font-size="85.8136" letter-spacing="18">O</tspan><tspan x="405.1" y="0" fill="#FFFFFF" font-family="'HWTUnitGothic-721'" font-size="85.8136" letter-spacing="22">P</tspan></text>
</g>
<g id="Layer_2">
</g>
</svg>
