<?xml version="1.0" encoding="utf-8"?>
<!-- Generator: Adobe Illustrator 18.1.1, SVG Export Plug-In . SVG Version: 6.00 Build 0)  -->
<svg version="1.1" id="Layer_1" xmlns="http://www.w3.org/2000/svg" xmlns:xlink="http://www.w3.org/1999/xlink" x="0px" y="0px"
	 viewBox="0 0 180 180" enable-background="new 0 0 180 180" xml:space="preserve">
<g>
	<path opacity="0.7" fill="#FFFFFF" d="M90.5,11.2c-0.1,0-0.2,0-0.2,0C46.5,11.2,11,46.7,11,90.5c0,43.8,35.5,79.2,79.2,79.2
		c0.1,0,0.2,0,0.2,0c43.7-0.1,79-35.5,79-79.2C169.5,46.8,134.2,11.4,90.5,11.2z"/>
	<polygon opacity="0.5" points="144.4,90.5 103.5,114.1 62.6,137.7 62.6,90.5 62.6,43.2 103.5,66.8 	"/>
	<path opacity="0.2" d="M90.5,2c-0.1,0-0.2,0-0.2,0C41.4,2,1.8,41.6,1.8,90.5S41.4,179,90.3,179c0.1,0,0.2,0,0.2,0
		c48.8-0.1,88.3-39.7,88.3-88.5S139.3,2.1,90.5,2z M90.5,169.7c-0.1,0-0.2,0-0.2,0c-43.8,0-79.2-35.5-79.2-79.2
		c0-43.8,35.5-79.2,79.2-79.2c0.1,0,0.2,0,0.2,0c43.7,0.1,79,35.5,79,79.2C169.5,134.1,134.2,169.6,90.5,169.7z"/>
</g>
</svg>
